<svg width="14" height="14" viewBox="0 0 14 14" fill="none" xmlns="http://www.w3.org/2000/svg">
<path d="M5.45672 12.25C5.86804 12.613 6.40835 12.8333 7.00011 12.8333C7.59187 12.8333 8.13218 12.613 8.54351 12.25M10.5001 4.66666C10.5001 3.7384 10.1314 2.84816 9.47499 2.19178C8.81861 1.53541 7.92837 1.16666 7.00011 1.16666C6.07186 1.16666 5.18162 1.53541 4.52524 2.19178C3.86886 2.84816 3.50011 3.7384 3.50011 4.66666C3.50011 6.46926 3.04539 7.70346 2.53742 8.51981C2.10894 9.20842 1.8947 9.55272 1.90255 9.64877C1.91125 9.75512 1.93378 9.79567 2.01948 9.85924C2.09688 9.91666 2.44579 9.91666 3.14361 9.91666H10.8566C11.5544 9.91666 11.9033 9.91666 11.9807 9.85924C12.0664 9.79567 12.089 9.75512 12.0977 9.64877C12.1055 9.55272 11.8913 9.20842 11.4628 8.51981C10.9548 7.70347 10.5001 6.46926 10.5001 4.66666Z" stroke="white" stroke-opacity="0.73" stroke-width="1.5" stroke-linecap="round" stroke-linejoin="round"/>
</svg>
