<svg width="20" height="20" viewBox="0 0 20 20" fill="none" xmlns="http://www.w3.org/2000/svg">
<g clip-path="url(#clip0_1_14042)">
<path d="M10 20C7.34844 20 4.80312 18.9458 2.92969 17.0711C1.05433 15.1957 0.000536638 12.6522 0 10C0 7.34891 1.05469 4.80359 2.92969 2.92891C4.80312 1.05422 7.34844 0 10 0C12.6516 0 15.1969 1.05422 17.0703 2.92891C18.9453 4.80359 20 7.34891 20 10C20 12.6511 18.9453 15.1964 17.0703 17.0711C15.1969 18.9458 12.6516 20 10 20Z" fill="url(#paint0_linear_1_14042)"/>
<path d="M4.52658 10.1057C7.4422 11.3757 9.38595 12.213 10.3578 12.6176C13.136 13.7727 13.7125 13.9734 14.0891 13.9802C14.1719 13.9815 14.3563 13.961 14.4766 13.8638C14.5766 13.7817 14.6047 13.6708 14.6188 13.5929C14.6313 13.5151 14.6485 13.3377 14.6344 13.1993C14.4844 11.6181 13.8328 7.78087 13.5016 6.00977C13.3625 5.2604 13.086 5.00915 12.8188 4.98462C12.2375 4.93118 11.7969 5.36837 11.2344 5.73696C10.3547 6.31399 9.85783 6.67306 9.00314 7.23602C8.01564 7.88665 8.65626 8.24431 9.21876 8.82868C9.36564 8.98165 11.925 11.309 11.9735 11.5201C11.9797 11.5465 11.986 11.6449 11.9266 11.6968C11.8688 11.7488 11.7828 11.731 11.7203 11.717C11.6313 11.697 10.2266 10.7676 7.50158 8.92899C7.10314 8.65493 6.7422 8.52134 6.4172 8.52837C6.06095 8.53603 5.37345 8.73024 4.86251 8.89618C4.23751 9.09977 3.73908 9.20743 3.78283 9.55321C3.8047 9.73321 4.05314 9.91743 4.52658 10.1057Z" fill="white"/>
</g>
<defs>
<linearGradient id="paint0_linear_1_14042" x1="1000" y1="20" x2="1000" y2="-1980" gradientUnits="userSpaceOnUse">
<stop stop-color="#2AABEE"/>
<stop offset="1" stop-color="#229ED9"/>
</linearGradient>
<clipPath id="clip0_1_14042">
<rect width="20" height="20" fill="white" transform="matrix(1 0 0 -1 0 20)"/>
</clipPath>
</defs>
</svg>
